<mxfile host="app.diagrams.net" modified="2022-10-18T09:23:17.353Z" agent="5.0 (Windows NT 10.0; Win64; x64) AppleWebKit/537.36 (KHTML, like Gecko) Chrome/106.0.0.0 Safari/537.36" etag="wcdefmEDGOPU238l5iW8" version="20.4.1" type="github">
  <diagram id="dYnlZhJZTXTGkgjAf-wS" name="Page-1">
    <mxGraphModel dx="1221" dy="726" grid="1" gridSize="10" guides="1" tooltips="1" connect="1" arrows="1" fold="1" page="1" pageScale="1" pageWidth="1100" pageHeight="600" math="0" shadow="0">
      <root>
        <mxCell id="0" />
        <mxCell id="1" parent="0" />
        <mxCell id="YaZ03HSrpbuAzf5lUF1r-20" style="rounded=0;orthogonalLoop=1;jettySize=auto;html=1;exitX=0.5;exitY=0.5;exitDx=0;exitDy=0;exitPerimeter=0;entryX=0;entryY=0.5;entryDx=0;entryDy=0;fontSize=10;edgeStyle=orthogonalEdgeStyle;" edge="1" parent="1" source="YaZ03HSrpbuAzf5lUF1r-1" target="YaZ03HSrpbuAzf5lUF1r-7">
          <mxGeometry relative="1" as="geometry" />
        </mxCell>
        <mxCell id="YaZ03HSrpbuAzf5lUF1r-21" style="edgeStyle=orthogonalEdgeStyle;rounded=0;orthogonalLoop=1;jettySize=auto;html=1;exitX=0.5;exitY=0.5;exitDx=0;exitDy=0;exitPerimeter=0;entryX=0;entryY=0.5;entryDx=0;entryDy=0;fontSize=10;" edge="1" parent="1" source="YaZ03HSrpbuAzf5lUF1r-1" target="YaZ03HSrpbuAzf5lUF1r-8">
          <mxGeometry relative="1" as="geometry" />
        </mxCell>
        <mxCell id="YaZ03HSrpbuAzf5lUF1r-22" style="edgeStyle=orthogonalEdgeStyle;rounded=0;orthogonalLoop=1;jettySize=auto;html=1;exitX=0.5;exitY=0.5;exitDx=0;exitDy=0;exitPerimeter=0;entryX=0;entryY=0.5;entryDx=0;entryDy=0;fontSize=10;" edge="1" parent="1" source="YaZ03HSrpbuAzf5lUF1r-1" target="YaZ03HSrpbuAzf5lUF1r-9">
          <mxGeometry relative="1" as="geometry" />
        </mxCell>
        <mxCell id="YaZ03HSrpbuAzf5lUF1r-71" style="edgeStyle=orthogonalEdgeStyle;rounded=0;orthogonalLoop=1;jettySize=auto;html=1;strokeColor=default;fontSize=10;startArrow=none;startFill=0;endArrow=classic;endFill=1;dashed=1;" edge="1" parent="1" source="YaZ03HSrpbuAzf5lUF1r-1" target="YaZ03HSrpbuAzf5lUF1r-70">
          <mxGeometry relative="1" as="geometry" />
        </mxCell>
        <mxCell id="YaZ03HSrpbuAzf5lUF1r-74" value="&amp;lt;&amp;lt;Include&amp;gt;&amp;gt;" style="edgeLabel;html=1;align=center;verticalAlign=middle;resizable=0;points=[];fontSize=10;" vertex="1" connectable="0" parent="YaZ03HSrpbuAzf5lUF1r-71">
          <mxGeometry x="-0.2154" y="2" relative="1" as="geometry">
            <mxPoint as="offset" />
          </mxGeometry>
        </mxCell>
        <mxCell id="YaZ03HSrpbuAzf5lUF1r-1" value="Head of commission" style="shape=umlActor;verticalLabelPosition=bottom;verticalAlign=top;html=1;outlineConnect=0;" vertex="1" parent="1">
          <mxGeometry x="215" y="330" width="30" height="60" as="geometry" />
        </mxCell>
        <mxCell id="YaZ03HSrpbuAzf5lUF1r-43" value="&amp;lt;&amp;lt;Include&amp;gt;&amp;gt;" style="edgeStyle=orthogonalEdgeStyle;rounded=0;orthogonalLoop=1;jettySize=auto;html=1;entryX=0;entryY=0.5;entryDx=0;entryDy=0;strokeColor=default;fontSize=10;dashed=1;" edge="1" parent="1" source="YaZ03HSrpbuAzf5lUF1r-7" target="YaZ03HSrpbuAzf5lUF1r-42">
          <mxGeometry x="-0.4286" relative="1" as="geometry">
            <Array as="points">
              <mxPoint x="435" y="170" />
            </Array>
            <mxPoint as="offset" />
          </mxGeometry>
        </mxCell>
        <mxCell id="YaZ03HSrpbuAzf5lUF1r-63" style="edgeStyle=orthogonalEdgeStyle;rounded=0;orthogonalLoop=1;jettySize=auto;html=1;entryX=0;entryY=0.5;entryDx=0;entryDy=0;strokeColor=default;fontSize=10;" edge="1" parent="1" source="YaZ03HSrpbuAzf5lUF1r-7" target="YaZ03HSrpbuAzf5lUF1r-50">
          <mxGeometry relative="1" as="geometry" />
        </mxCell>
        <mxCell id="YaZ03HSrpbuAzf5lUF1r-7" value="&lt;font style=&quot;font-size: 10px;&quot;&gt;Import data related to students&#39; undergraduate theses&lt;/font&gt;" style="ellipse;whiteSpace=wrap;html=1;" vertex="1" parent="1">
          <mxGeometry x="375" y="220" width="120" height="80" as="geometry" />
        </mxCell>
        <mxCell id="YaZ03HSrpbuAzf5lUF1r-44" style="edgeStyle=orthogonalEdgeStyle;rounded=0;orthogonalLoop=1;jettySize=auto;html=1;dashed=1;strokeColor=default;fontSize=10;exitX=0.5;exitY=0;exitDx=0;exitDy=0;entryX=0.5;entryY=1;entryDx=0;entryDy=0;" edge="1" parent="1" source="YaZ03HSrpbuAzf5lUF1r-8" target="YaZ03HSrpbuAzf5lUF1r-42">
          <mxGeometry relative="1" as="geometry">
            <mxPoint x="525" y="200" as="targetPoint" />
            <Array as="points">
              <mxPoint x="525" y="320" />
            </Array>
          </mxGeometry>
        </mxCell>
        <mxCell id="YaZ03HSrpbuAzf5lUF1r-61" style="edgeStyle=none;rounded=0;orthogonalLoop=1;jettySize=auto;html=1;entryX=0;entryY=0.5;entryDx=0;entryDy=0;strokeColor=default;fontSize=10;" edge="1" parent="1" source="YaZ03HSrpbuAzf5lUF1r-8" target="YaZ03HSrpbuAzf5lUF1r-51">
          <mxGeometry relative="1" as="geometry" />
        </mxCell>
        <mxCell id="YaZ03HSrpbuAzf5lUF1r-8" value="&lt;font style=&quot;font-size: 10px;&quot;&gt;Edit data related to students&#39; undergraduate theses&lt;/font&gt;" style="ellipse;whiteSpace=wrap;html=1;" vertex="1" parent="1">
          <mxGeometry x="375" y="320" width="120" height="80" as="geometry" />
        </mxCell>
        <mxCell id="YaZ03HSrpbuAzf5lUF1r-33" style="edgeStyle=entityRelationEdgeStyle;rounded=0;orthogonalLoop=1;jettySize=auto;html=1;exitX=1;exitY=0.5;exitDx=0;exitDy=0;entryX=0;entryY=0.5;entryDx=0;entryDy=0;strokeColor=default;fontSize=10;" edge="1" parent="1" source="YaZ03HSrpbuAzf5lUF1r-9" target="YaZ03HSrpbuAzf5lUF1r-32">
          <mxGeometry relative="1" as="geometry" />
        </mxCell>
        <mxCell id="YaZ03HSrpbuAzf5lUF1r-72" style="edgeStyle=orthogonalEdgeStyle;rounded=0;orthogonalLoop=1;jettySize=auto;html=1;exitX=0.5;exitY=0;exitDx=0;exitDy=0;entryX=0.5;entryY=1;entryDx=0;entryDy=0;dashed=1;strokeColor=default;fontSize=10;startArrow=none;startFill=0;endArrow=classic;endFill=1;" edge="1" parent="1" source="YaZ03HSrpbuAzf5lUF1r-9" target="YaZ03HSrpbuAzf5lUF1r-42">
          <mxGeometry relative="1" as="geometry">
            <Array as="points">
              <mxPoint x="525" y="420" />
            </Array>
          </mxGeometry>
        </mxCell>
        <mxCell id="YaZ03HSrpbuAzf5lUF1r-76" value="&amp;lt;&amp;lt;Include&amp;gt;&amp;gt;" style="edgeLabel;html=1;align=center;verticalAlign=middle;resizable=0;points=[];fontSize=10;" vertex="1" connectable="0" parent="YaZ03HSrpbuAzf5lUF1r-72">
          <mxGeometry x="-0.3061" y="1" relative="1" as="geometry">
            <mxPoint y="1" as="offset" />
          </mxGeometry>
        </mxCell>
        <mxCell id="YaZ03HSrpbuAzf5lUF1r-9" value="&lt;font style=&quot;font-size: 10px;&quot;&gt;Plan the students presentations ( day and hour )&lt;/font&gt;" style="ellipse;whiteSpace=wrap;html=1;" vertex="1" parent="1">
          <mxGeometry x="375" y="420" width="120" height="80" as="geometry" />
        </mxCell>
        <mxCell id="YaZ03HSrpbuAzf5lUF1r-16" value="Final Exams Planner" style="text;whiteSpace=wrap;html=1;fontSize=13;" vertex="1" parent="1">
          <mxGeometry x="285" y="90" width="130" height="20" as="geometry" />
        </mxCell>
        <mxCell id="YaZ03HSrpbuAzf5lUF1r-56" style="rounded=0;orthogonalLoop=1;jettySize=auto;html=1;exitX=0.5;exitY=1;exitDx=0;exitDy=0;entryX=1;entryY=0.5;entryDx=0;entryDy=0;dashed=1;strokeColor=default;fontSize=10;" edge="1" parent="1" source="YaZ03HSrpbuAzf5lUF1r-23" target="YaZ03HSrpbuAzf5lUF1r-8">
          <mxGeometry relative="1" as="geometry" />
        </mxCell>
        <mxCell id="YaZ03HSrpbuAzf5lUF1r-59" value="&amp;lt;&amp;lt;Extend&amp;gt;&amp;gt;" style="edgeLabel;html=1;align=center;verticalAlign=middle;resizable=0;points=[];fontSize=10;" vertex="1" connectable="0" parent="YaZ03HSrpbuAzf5lUF1r-56">
          <mxGeometry x="-0.1534" y="-1" relative="1" as="geometry">
            <mxPoint x="23" y="-23" as="offset" />
          </mxGeometry>
        </mxCell>
        <mxCell id="YaZ03HSrpbuAzf5lUF1r-57" style="rounded=0;orthogonalLoop=1;jettySize=auto;html=1;exitX=0.5;exitY=1;exitDx=0;exitDy=0;entryX=0.5;entryY=0;entryDx=0;entryDy=0;dashed=1;strokeColor=default;fontSize=10;" edge="1" parent="1" source="YaZ03HSrpbuAzf5lUF1r-23" target="YaZ03HSrpbuAzf5lUF1r-32">
          <mxGeometry relative="1" as="geometry" />
        </mxCell>
        <mxCell id="YaZ03HSrpbuAzf5lUF1r-60" value="&amp;lt;&amp;lt;Extend&amp;gt;&amp;gt;" style="edgeLabel;html=1;align=center;verticalAlign=middle;resizable=0;points=[];fontSize=10;" vertex="1" connectable="0" parent="YaZ03HSrpbuAzf5lUF1r-57">
          <mxGeometry x="-0.3577" y="-3" relative="1" as="geometry">
            <mxPoint as="offset" />
          </mxGeometry>
        </mxCell>
        <mxCell id="YaZ03HSrpbuAzf5lUF1r-75" value="&amp;lt;&amp;lt;Extend&amp;gt;&amp;gt;" style="rounded=0;orthogonalLoop=1;jettySize=auto;html=1;entryX=1;entryY=0.5;entryDx=0;entryDy=0;dashed=1;strokeColor=default;fontSize=10;startArrow=none;startFill=0;endArrow=classic;endFill=1;exitX=0.5;exitY=1;exitDx=0;exitDy=0;" edge="1" parent="1" source="YaZ03HSrpbuAzf5lUF1r-23" target="YaZ03HSrpbuAzf5lUF1r-7">
          <mxGeometry relative="1" as="geometry" />
        </mxCell>
        <mxCell id="YaZ03HSrpbuAzf5lUF1r-23" value="&lt;span style=&quot;font-size: 10px;&quot;&gt;Check for incorrect data&lt;/span&gt;" style="ellipse;whiteSpace=wrap;html=1;" vertex="1" parent="1">
          <mxGeometry x="605" y="130" width="120" height="80" as="geometry" />
        </mxCell>
        <mxCell id="YaZ03HSrpbuAzf5lUF1r-27" value="Students DB" style="shape=cylinder3;whiteSpace=wrap;html=1;boundedLbl=1;backgroundOutline=1;size=15;fontSize=10;fillColor=none;gradientColor=default;" vertex="1" parent="1">
          <mxGeometry x="1015" y="320" width="60" height="80" as="geometry" />
        </mxCell>
        <mxCell id="YaZ03HSrpbuAzf5lUF1r-62" style="edgeStyle=orthogonalEdgeStyle;rounded=0;orthogonalLoop=1;jettySize=auto;html=1;entryX=0;entryY=0.5;entryDx=0;entryDy=0;strokeColor=default;fontSize=10;" edge="1" parent="1" source="YaZ03HSrpbuAzf5lUF1r-32" target="YaZ03HSrpbuAzf5lUF1r-50">
          <mxGeometry relative="1" as="geometry" />
        </mxCell>
        <mxCell id="YaZ03HSrpbuAzf5lUF1r-32" value="Algorithm for planning" style="ellipse;whiteSpace=wrap;html=1;fontSize=10;" vertex="1" parent="1">
          <mxGeometry x="545" y="420" width="120" height="80" as="geometry" />
        </mxCell>
        <mxCell id="YaZ03HSrpbuAzf5lUF1r-42" value="&lt;span style=&quot;font-size: 10px;&quot;&gt;Log in&lt;/span&gt;" style="ellipse;whiteSpace=wrap;html=1;" vertex="1" parent="1">
          <mxGeometry x="490" y="145" width="70" height="50" as="geometry" />
        </mxCell>
        <mxCell id="YaZ03HSrpbuAzf5lUF1r-64" style="edgeStyle=orthogonalEdgeStyle;rounded=0;orthogonalLoop=1;jettySize=auto;html=1;entryX=0;entryY=0.5;entryDx=0;entryDy=0;entryPerimeter=0;strokeColor=default;fontSize=10;" edge="1" parent="1" source="YaZ03HSrpbuAzf5lUF1r-50" target="YaZ03HSrpbuAzf5lUF1r-27">
          <mxGeometry relative="1" as="geometry" />
        </mxCell>
        <mxCell id="YaZ03HSrpbuAzf5lUF1r-50" value="&lt;span style=&quot;font-size: 10px;&quot;&gt;Insert data&lt;/span&gt;" style="ellipse;whiteSpace=wrap;html=1;" vertex="1" parent="1">
          <mxGeometry x="765" y="220" width="120" height="80" as="geometry" />
        </mxCell>
        <mxCell id="YaZ03HSrpbuAzf5lUF1r-65" style="edgeStyle=orthogonalEdgeStyle;rounded=0;orthogonalLoop=1;jettySize=auto;html=1;entryX=0;entryY=0.5;entryDx=0;entryDy=0;entryPerimeter=0;strokeColor=default;fontSize=10;" edge="1" parent="1" source="YaZ03HSrpbuAzf5lUF1r-51" target="YaZ03HSrpbuAzf5lUF1r-27">
          <mxGeometry relative="1" as="geometry" />
        </mxCell>
        <mxCell id="YaZ03HSrpbuAzf5lUF1r-51" value="&lt;span style=&quot;font-size: 10px;&quot;&gt;Update data&lt;br&gt;&lt;/span&gt;" style="ellipse;whiteSpace=wrap;html=1;" vertex="1" parent="1">
          <mxGeometry x="765" y="320" width="120" height="80" as="geometry" />
        </mxCell>
        <mxCell id="YaZ03HSrpbuAzf5lUF1r-70" value="Excel file with data" style="shape=note;whiteSpace=wrap;html=1;backgroundOutline=1;darkOpacity=0.05;fontSize=10;fillColor=none;gradientColor=default;" vertex="1" parent="1">
          <mxGeometry x="25" y="315" width="60" height="90" as="geometry" />
        </mxCell>
        <mxCell id="YaZ03HSrpbuAzf5lUF1r-18" value="" style="rounded=0;whiteSpace=wrap;html=1;fontSize=10;gradientColor=default;fillColor=none;dashed=1;dashPattern=1 1;" vertex="1" parent="1">
          <mxGeometry x="295" y="120" width="680" height="391" as="geometry" />
        </mxCell>
      </root>
    </mxGraphModel>
  </diagram>
</mxfile>
